<svg width="21" height="20" viewBox="0 0 21 20" fill="none" xmlns="http://www.w3.org/2000/svg">
<g clip-path="url(#clip0_5500_707)">
<path fill-rule="evenodd" clip-rule="evenodd" d="M10.5 8.45846C10.8912 8.45846 11.2083 8.77559 11.2083 9.16679V12.4567L12.0825 11.5826C12.3591 11.306 12.8076 11.306 13.0842 11.5826C13.3608 11.8592 13.3608 12.3077 13.0842 12.5843L11.0009 14.6677C10.7242 14.9443 10.2757 14.9443 9.99913 14.6677L7.91579 12.5843C7.63917 12.3077 7.63917 11.8592 7.91579 11.5826C8.19241 11.306 8.64091 11.306 8.91753 11.5826L9.79166 12.4567V9.16679C9.79166 8.77559 10.1088 8.45846 10.5 8.45846Z" fill="#414651"/>
<path fill-rule="evenodd" clip-rule="evenodd" d="M6.02301 2.52123C4.96722 2.66314 4.34515 2.93104 3.88778 3.38765C3.43135 3.84452 3.16343 4.46643 3.02151 5.52241C2.87682 6.59895 2.87532 8.01586 2.87532 10L1.45865 12.5001L1.45865 9.94636C1.45864 8.02771 1.45863 6.51555 1.61747 5.33371C1.78052 4.12051 2.12253 3.14995 2.88595 2.38601C3.65022 1.62278 4.62113 1.28025 5.8343 1.11719C7.01603 0.95835 8.52799 0.958361 10.4466 0.958374H10.554C12.4727 0.958361 13.9848 0.95835 15.1666 1.11719C16.3796 1.28024 17.3501 1.62226 18.1137 2.38584C18.8774 3.15009 19.2199 4.1207 19.3831 5.33395C19.542 6.51572 19.542 8.02771 19.542 9.94633V11.6668L18.1253 10C18.1253 8.01584 18.1238 6.59919 17.979 5.5228C17.837 4.46689 17.5689 3.84482 17.1118 3.3874C16.6554 2.93109 16.0338 2.66316 14.9778 2.52123C13.9014 2.37654 12.4845 2.37504 10.5003 2.37504C8.51614 2.37504 7.09944 2.37654 6.02301 2.52123Z" fill="#414651"/>
<path fill-rule="evenodd" clip-rule="evenodd" d="M8.80192 4.29179H12.1981C13.3382 4.29178 14.2373 4.29178 14.961 4.35091C15.6996 4.41125 16.3177 4.5367 16.8799 4.82313C17.7972 5.29051 18.5429 6.03629 19.0103 6.95359C19.2967 7.51573 19.4222 8.13385 19.4825 8.87245C19.5417 9.59616 19.5417 10.4952 19.5417 11.6354V11.6981C19.5417 12.8383 19.5417 13.7374 19.4825 14.4611C19.4222 15.1997 19.2967 15.8178 19.0103 16.38C18.5429 17.2973 17.7972 18.0431 16.8799 18.5104C16.3177 18.7969 15.6996 18.9223 14.961 18.9827C14.2373 19.0418 13.3382 19.0418 12.198 19.0418H8.80197C7.66177 19.0418 6.7627 19.0418 6.03899 18.9827C5.30038 18.9223 4.68227 18.7969 4.12012 18.5104C3.20283 18.0431 2.45705 17.2973 1.98967 16.38C1.70324 15.8178 1.57779 15.1997 1.51745 14.4611C1.45832 13.7374 1.45832 12.8384 1.45833 11.6982V11.6354C1.45832 10.4952 1.45832 9.59615 1.51745 8.87245C1.57779 8.13385 1.70324 7.51573 1.98967 6.95359C2.45705 6.03629 3.20283 5.29051 4.12012 4.82313C4.68227 4.5367 5.30038 4.41125 6.03899 4.35091C6.76269 4.29178 7.66174 4.29178 8.80192 4.29179ZM6.15435 5.76287C5.50335 5.81606 5.09243 5.91768 4.76328 6.08539C4.11255 6.41695 3.58349 6.94601 3.25193 7.59674C3.08422 7.92589 2.9826 8.33681 2.92941 8.98781C2.87555 9.64708 2.87499 10.4883 2.87499 11.6668C2.87499 12.8453 2.87555 13.6865 2.92941 14.3458C2.9826 14.9968 3.08422 15.4077 3.25193 15.7368C3.58349 16.3876 4.11255 16.9166 4.76328 17.2482C5.09243 17.4159 5.50335 17.5175 6.15435 17.5707C6.81362 17.6246 7.65486 17.6251 8.83333 17.6251H12.1667C13.3451 17.6251 14.1864 17.6246 14.8456 17.5707C15.4966 17.5175 15.9076 17.4159 16.2367 17.2482C16.8874 16.9166 17.4165 16.3876 17.7481 15.7368C17.9158 15.4077 18.0174 14.9968 18.0706 14.3458C18.1244 13.6865 18.125 12.8453 18.125 11.6668C18.125 10.4883 18.1244 9.64708 18.0706 8.98781C18.0174 8.33681 17.9158 7.92589 17.7481 7.59674C17.4165 6.94601 16.8874 6.41695 16.2367 6.08539C15.9076 5.91768 15.4966 5.81606 14.8456 5.76287C14.1864 5.70901 13.3451 5.70846 12.1667 5.70846H8.83333C7.65486 5.70846 6.81362 5.70901 6.15435 5.76287Z" fill="#414651"/>
</g>
<defs>
<clipPath id="clip0_5500_707">
<rect width="20" height="20" fill="white" transform="translate(0.5 0.00012207)"/>
</clipPath>
</defs>
</svg>
