<svg width="56" height="56" viewBox="0 0 56 56" fill="none" xmlns="http://www.w3.org/2000/svg">
<path d="M0.583333 25.6C0.583333 21.11 0.583787 17.7775 0.799383 15.1387C1.01442 12.5068 1.44059 10.6163 2.26365 9.00098C3.7417 6.10015 6.10015 3.7417 9.00098 2.26365C10.6163 1.44059 12.5068 1.01442 15.1387 0.799383C17.7775 0.583787 21.11 0.583333 25.6 0.583333H30.4C34.89 0.583333 38.2225 0.583787 40.8613 0.799383C43.4932 1.01442 45.3837 1.44059 46.999 2.26365C49.8999 3.7417 52.2583 6.10015 53.7364 9.00098C54.5594 10.6163 54.9856 12.5068 55.2006 15.1387C55.4162 17.7775 55.4167 21.11 55.4167 25.6V30.4C55.4167 34.89 55.4162 38.2225 55.2006 40.8613C54.9856 43.4932 54.5594 45.3837 53.7364 46.999C52.2583 49.8999 49.8999 52.2583 46.999 53.7364C45.3837 54.5594 43.4932 54.9856 40.8613 55.2006C38.2225 55.4162 34.89 55.4167 30.4 55.4167H25.6C21.11 55.4167 17.7775 55.4162 15.1387 55.2006C12.5068 54.9856 10.6163 54.5594 9.00098 53.7364C6.10015 52.2583 3.7417 49.8999 2.26365 46.999C1.44059 45.3837 1.01442 43.4932 0.799383 40.8613C0.583787 38.2225 0.583333 34.89 0.583333 30.4V25.6Z" fill="#FDFDFD"/>
<path d="M0.583333 25.6C0.583333 21.11 0.583787 17.7775 0.799383 15.1387C1.01442 12.5068 1.44059 10.6163 2.26365 9.00098C3.7417 6.10015 6.10015 3.7417 9.00098 2.26365C10.6163 1.44059 12.5068 1.01442 15.1387 0.799383C17.7775 0.583787 21.11 0.583333 25.6 0.583333H30.4C34.89 0.583333 38.2225 0.583787 40.8613 0.799383C43.4932 1.01442 45.3837 1.44059 46.999 2.26365C49.8999 3.7417 52.2583 6.10015 53.7364 9.00098C54.5594 10.6163 54.9856 12.5068 55.2006 15.1387C55.4162 17.7775 55.4167 21.11 55.4167 25.6V30.4C55.4167 34.89 55.4162 38.2225 55.2006 40.8613C54.9856 43.4932 54.5594 45.3837 53.7364 46.999C52.2583 49.8999 49.8999 52.2583 46.999 53.7364C45.3837 54.5594 43.4932 54.9856 40.8613 55.2006C38.2225 55.4162 34.89 55.4167 30.4 55.4167H25.6C21.11 55.4167 17.7775 55.4162 15.1387 55.2006C12.5068 54.9856 10.6163 54.5594 9.00098 53.7364C6.10015 52.2583 3.7417 49.8999 2.26365 46.999C1.44059 45.3837 1.01442 43.4932 0.799383 40.8613C0.583787 38.2225 0.583333 34.89 0.583333 30.4V25.6Z" stroke="#E9EAEB" stroke-width="1.16667"/>
<path fill-rule="evenodd" clip-rule="evenodd" d="M33.5069 14.3367C27.5651 14.3367 22.7484 19.1535 22.7484 25.0952C22.7484 31.037 27.5651 35.8537 33.5069 35.8537C34.6952 35.8537 35.6586 36.8171 35.6586 38.0054C35.6586 39.1938 34.6952 40.1571 33.5069 40.1571C25.1884 40.1571 18.445 33.4137 18.445 25.0952C18.445 16.7768 25.1884 10.0333 33.5069 10.0333C34.6952 10.0333 35.6586 10.9967 35.6586 12.185C35.6586 13.3734 34.6952 14.3367 33.5069 14.3367ZM14.7884 22.9435C15.9768 22.9435 16.9401 23.9068 16.9401 25.0952C16.9401 34.2455 24.3579 41.6633 33.5082 41.6633C34.6966 41.6633 35.6599 42.6266 35.6599 43.815C35.6599 45.0033 34.6966 45.9667 33.5082 45.9667C21.9812 45.9667 12.6367 36.6222 12.6367 25.0952C12.6367 23.9068 13.6001 22.9435 14.7884 22.9435ZM33.5077 30.044C36.1815 30.044 38.349 27.8764 38.349 25.2027C38.349 22.5369 36.1945 20.3744 33.5319 20.3614C33.9208 20.8278 34.1548 21.428 34.1548 22.0828C34.1548 23.5682 32.9506 24.7724 31.4652 24.7724C30.4129 24.7724 29.5018 24.1681 29.0599 23.2876C28.8066 23.875 28.6664 24.5224 28.6664 25.2027C28.6664 27.8764 30.8339 30.044 33.5077 30.044ZM33.5077 34.3474C38.5582 34.3474 42.6524 30.2531 42.6524 25.2027C42.6524 20.1522 38.5582 16.0579 33.5077 16.0579C28.4572 16.0579 24.363 20.1522 24.363 25.2027C24.363 30.2531 28.4572 34.3474 33.5077 34.3474Z" fill="url(#paint0_linear_2545_6329)"/>
<defs>
<linearGradient id="paint0_linear_2545_6329" x1="3.15838" y1="2.13447" x2="49.5335" y2="-1.44326" gradientUnits="userSpaceOnUse">
<stop stop-color="#1570EF"/>
<stop offset="1" stop-color="#53B1FD"/>
</linearGradient>
</defs>
</svg>
