<svg width="32" height="32" viewBox="0 0 32 32" fill="none" xmlns="http://www.w3.org/2000/svg">
<path d="M0 12.8C0 8.31958 0 6.07937 0.871948 4.36808C1.63893 2.86278 2.86278 1.63893 4.36808 0.871948C6.07937 0 8.31958 0 12.8 0H19.2C23.6804 0 25.9206 0 27.6319 0.871948C29.1372 1.63893 30.3611 2.86278 31.1281 4.36808C32 6.07937 32 8.31958 32 12.8V19.2C32 23.6804 32 25.9206 31.1281 27.6319C30.3611 29.1372 29.1372 30.3611 27.6319 31.1281C25.9206 32 23.6804 32 19.2 32H12.8C8.31958 32 6.07937 32 4.36808 31.1281C2.86278 30.3611 1.63893 29.1372 0.871948 27.6319C0 25.9206 0 23.6804 0 19.2V12.8Z" fill="url(#paint0_linear_2390_31112)"/>
<path fill-rule="evenodd" clip-rule="evenodd" d="M19.2119 7.72406C15.4508 7.72406 12.4018 10.7731 12.4018 14.5342C12.4018 18.2954 15.4508 21.3444 19.2119 21.3444C19.9642 21.3444 20.574 21.9542 20.574 22.7064C20.574 23.4586 19.9642 24.0684 19.2119 24.0684C13.9463 24.0684 9.67773 19.7998 9.67773 14.5342C9.67773 9.26861 13.9463 5 19.2119 5C19.9642 5 20.574 5.6098 20.574 6.36203C20.574 7.11426 19.9642 7.72406 19.2119 7.72406ZM7.36203 13.1721C8.11426 13.1721 8.72406 13.7819 8.72406 14.5341C8.72406 20.3263 13.4195 25.0218 19.2117 25.0218C19.9639 25.0218 20.5737 25.6316 20.5737 26.3838C20.5737 27.136 19.9639 27.7458 19.2117 27.7458C11.9151 27.7458 6 21.8308 6 14.5341C6 13.7819 6.6098 13.1721 7.36203 13.1721ZM19.2112 17.6668C20.9037 17.6668 22.2758 16.2947 22.2758 14.6022C22.2758 12.9147 20.9119 11.5458 19.2263 11.5377C19.4725 11.8329 19.6206 12.2128 19.6206 12.6273C19.6206 13.5676 18.8584 14.3298 17.9181 14.3298C17.2521 14.3298 16.6754 13.9474 16.3956 13.3902C16.2354 13.7619 16.1466 14.1717 16.1466 14.6022C16.1466 16.2947 17.5187 17.6668 19.2112 17.6668ZM19.2112 20.3908C22.4082 20.3908 24.9998 17.7992 24.9998 14.6022C24.9998 11.4052 22.4082 8.81357 19.2112 8.81357C16.0142 8.81357 13.4226 11.4052 13.4226 14.6022C13.4226 17.7992 16.0142 20.3908 19.2112 20.3908Z" fill="white"/>
<defs>
<linearGradient id="paint0_linear_2390_31112" x1="-10.1049" y1="-7.03423" x2="39.2096" y2="-11.5888" gradientUnits="userSpaceOnUse">
<stop stop-color="#1570EF"/>
<stop offset="1" stop-color="#53B1FD"/>
</linearGradient>
</defs>
</svg>
