<svg width="139" height="32" viewBox="0 0 139 32" fill="none" xmlns="http://www.w3.org/2000/svg">
<path d="M0.5 12.8C0.5 10.5515 0.500389 8.89526 0.607333 7.58633C0.7138 6.28324 0.923378 5.36848 1.31745 4.59507C2.0365 3.18386 3.18386 2.0365 4.59507 1.31745C5.36848 0.923378 6.28324 0.7138 7.58633 0.607333C8.89526 0.500389 10.5515 0.5 12.8 0.5H19.2C21.4485 0.5 23.1047 0.500389 24.4137 0.607333C25.7168 0.7138 26.6315 0.923378 27.4049 1.31745C28.8161 2.0365 29.9635 3.18386 30.6825 4.59507C31.0766 5.36848 31.2862 6.28324 31.3927 7.58633C31.4996 8.89526 31.5 10.5515 31.5 12.8V19.2C31.5 21.4485 31.4996 23.1047 31.3927 24.4137C31.2862 25.7168 31.0766 26.6315 30.6825 27.4049C29.9635 28.8161 28.8161 29.9635 27.4049 30.6825C26.6315 31.0766 25.7168 31.2862 24.4137 31.3927C23.1047 31.4996 21.4485 31.5 19.2 31.5H12.8C10.5515 31.5 8.89526 31.4996 7.58633 31.3927C6.28324 31.2862 5.36848 31.0766 4.59507 30.6825C3.18386 29.9635 2.0365 28.8161 1.31745 27.4049C0.923378 26.6315 0.7138 25.7168 0.607333 24.4137C0.500389 23.1047 0.5 21.4485 0.5 19.2V12.8Z" fill="#FDFDFD"/>
<path d="M0.5 12.8C0.5 10.5515 0.500389 8.89526 0.607333 7.58633C0.7138 6.28324 0.923378 5.36848 1.31745 4.59507C2.0365 3.18386 3.18386 2.0365 4.59507 1.31745C5.36848 0.923378 6.28324 0.7138 7.58633 0.607333C8.89526 0.500389 10.5515 0.5 12.8 0.5H19.2C21.4485 0.5 23.1047 0.500389 24.4137 0.607333C25.7168 0.7138 26.6315 0.923378 27.4049 1.31745C28.8161 2.0365 29.9635 3.18386 30.6825 4.59507C31.0766 5.36848 31.2862 6.28324 31.3927 7.58633C31.4996 8.89526 31.5 10.5515 31.5 12.8V19.2C31.5 21.4485 31.4996 23.1047 31.3927 24.4137C31.2862 25.7168 31.0766 26.6315 30.6825 27.4049C29.9635 28.8161 28.8161 29.9635 27.4049 30.6825C26.6315 31.0766 25.7168 31.2862 24.4137 31.3927C23.1047 31.4996 21.4485 31.5 19.2 31.5H12.8C10.5515 31.5 8.89526 31.4996 7.58633 31.3927C6.28324 31.2862 5.36848 31.0766 4.59507 30.6825C3.18386 29.9635 2.0365 28.8161 1.31745 27.4049C0.923378 26.6315 0.7138 25.7168 0.607333 24.4137C0.500389 23.1047 0.5 21.4485 0.5 19.2V12.8Z" stroke="#E9EAEB"/>
<path fill-rule="evenodd" clip-rule="evenodd" d="M19.2119 7.72406C15.4508 7.72406 12.4018 10.7731 12.4018 14.5342C12.4018 18.2954 15.4508 21.3444 19.2119 21.3444C19.9642 21.3444 20.574 21.9542 20.574 22.7064C20.574 23.4586 19.9642 24.0684 19.2119 24.0684C13.9463 24.0684 9.67773 19.7998 9.67773 14.5342C9.67773 9.26861 13.9463 5 19.2119 5C19.9642 5 20.574 5.6098 20.574 6.36203C20.574 7.11426 19.9642 7.72406 19.2119 7.72406ZM7.36203 13.1721C8.11426 13.1721 8.72406 13.7819 8.72406 14.5341C8.72406 20.3263 13.4195 25.0218 19.2117 25.0218C19.9639 25.0218 20.5737 25.6316 20.5737 26.3838C20.5737 27.136 19.9639 27.7458 19.2117 27.7458C11.9151 27.7458 6 21.8308 6 14.5341C6 13.7819 6.6098 13.1721 7.36203 13.1721ZM19.2112 17.6668C20.9037 17.6668 22.2758 16.2947 22.2758 14.6022C22.2758 12.9147 20.9119 11.5458 19.2263 11.5377C19.4725 11.8329 19.6206 12.2128 19.6206 12.6273C19.6206 13.5676 18.8584 14.3298 17.9181 14.3298C17.2521 14.3298 16.6754 13.9474 16.3956 13.3902C16.2354 13.7619 16.1466 14.1717 16.1466 14.6022C16.1466 16.2947 17.5187 17.6668 19.2112 17.6668ZM19.2112 20.3908C22.4082 20.3908 24.9998 17.7992 24.9998 14.6022C24.9998 11.4052 22.4082 8.81357 19.2112 8.81357C16.0142 8.81357 13.4226 11.4052 13.4226 14.6022C13.4226 17.7992 16.0142 20.3908 19.2112 20.3908Z" fill="url(#paint0_linear_2390_30988)"/>
<path d="M40 22.0785V8.98755H48.821V11.2695H42.7678V14.3888H48.3672V16.6708H42.7678V19.7965H48.8466V22.0785H40Z" fill="#101828"/>
<path d="M52.6515 25.7603C52.3063 25.7603 51.9824 25.7326 51.6799 25.6772C51.3816 25.626 51.1344 25.56 50.9384 25.479L51.552 23.4464C51.8716 23.5444 52.1593 23.5976 52.415 23.6062C52.6749 23.6147 52.8986 23.555 53.0861 23.4272C53.2779 23.2993 53.4334 23.082 53.5527 22.7752L53.7125 22.3597L50.1905 12.2603H53.0542L55.0868 19.4705H55.1891L57.2409 12.2603H60.1238L56.3077 23.1395C56.1245 23.668 55.8752 24.1282 55.5598 24.5202C55.2488 24.9165 54.8546 25.2212 54.3773 25.4343C53.9 25.6516 53.3248 25.7603 52.6515 25.7603Z" fill="#101828"/>
<path d="M65.6752 22.2702C64.6653 22.2702 63.796 22.0657 63.0673 21.6566C62.3429 21.2432 61.7846 20.6594 61.3926 19.9052C61.0005 19.1466 60.8045 18.2496 60.8045 17.2141C60.8045 16.2042 61.0005 15.3178 61.3926 14.555C61.7846 13.7922 62.3365 13.1978 63.0481 12.7716C63.764 12.3455 64.6035 12.1324 65.5666 12.1324C66.2143 12.1324 66.8173 12.2368 67.3755 12.4457C67.938 12.6502 68.4281 12.9591 68.8457 13.3725C69.2676 13.7859 69.5957 14.3057 69.8301 14.9322C70.0645 15.5543 70.1816 16.283 70.1816 17.1182V17.8661H61.8912V16.1786H67.6184C67.6184 15.7866 67.5332 15.4393 67.3627 15.1367C67.1923 14.8341 66.9558 14.5976 66.6532 14.4272C66.3549 14.2525 66.0076 14.1651 65.6113 14.1651C65.198 14.1651 64.8315 14.261 64.5119 14.4528C64.1966 14.6403 63.9494 14.8938 63.7704 15.2134C63.5914 15.5287 63.4998 15.8803 63.4956 16.2681V17.8725C63.4956 18.3583 63.585 18.778 63.764 19.1317C63.9473 19.4854 64.2051 19.7582 64.5375 19.9499C64.8699 20.1417 65.264 20.2376 65.72 20.2376C66.0226 20.2376 66.2995 20.1949 66.551 20.1097C66.8024 20.0245 67.0176 19.8966 67.1966 19.7262C67.3755 19.5557 67.5119 19.3469 67.6056 19.0998L70.1241 19.266C69.9963 19.8711 69.7342 20.3995 69.3379 20.8512C68.9458 21.2986 68.4387 21.6481 67.8166 21.8995C67.1987 22.1466 66.4849 22.2702 65.6752 22.2702Z" fill="#101828"/>
<path d="M72.0098 22.0785V8.98755H77.2512C78.2143 8.98755 79.0176 9.13031 79.661 9.41582C80.3045 9.70133 80.7882 10.0976 81.112 10.6047C81.4359 11.1076 81.5978 11.6871 81.5978 12.3434C81.5978 12.8547 81.4956 13.3043 81.291 13.6921C81.0865 14.0756 80.8052 14.391 80.4473 14.6381C80.0936 14.881 79.6887 15.0536 79.2328 15.1559V15.2837C79.7314 15.305 80.198 15.4457 80.6326 15.7056C81.0716 15.9655 81.4274 16.3299 81.7001 16.7986C81.9728 17.2631 82.1092 17.8171 82.1092 18.4606C82.1092 19.1552 81.9366 19.7752 81.5914 20.3207C81.2505 20.8618 80.7456 21.2901 80.0765 21.6055C79.4075 21.9208 78.5829 22.0785 77.6028 22.0785H72.0098ZM74.7775 19.8157H77.0339C77.8052 19.8157 78.3677 19.6687 78.7214 19.3746C79.0751 19.0763 79.252 18.68 79.252 18.1857C79.252 17.8235 79.1646 17.5039 78.9899 17.2269C78.8152 16.9499 78.5659 16.7326 78.242 16.5749C77.9224 16.4172 77.541 16.3384 77.0978 16.3384H74.7775V19.8157ZM74.7775 14.4655H76.8294C77.2086 14.4655 77.5453 14.3995 77.8393 14.2674C78.1376 14.131 78.372 13.9393 78.5424 13.6921C78.7172 13.4449 78.8045 13.1488 78.8045 12.8036C78.8045 12.3306 78.6362 11.9492 78.2995 11.6594C77.9672 11.3697 77.4941 11.2248 76.8805 11.2248H74.7775V14.4655Z" fill="#101828"/>
<path d="M90.1552 17.8981V12.2603H92.8782V22.0785H90.2639V20.2951H90.1616C89.94 20.8704 89.5714 21.3327 89.0558 21.6822C88.5444 22.0316 87.9201 22.2063 87.1829 22.2063C86.5266 22.2063 85.9492 22.0572 85.4506 21.7589C84.9521 21.4606 84.5621 21.0366 84.2809 20.4868C84.0039 19.9371 83.8633 19.2787 83.859 18.5117V12.2603H86.582V18.0259C86.5863 18.6055 86.7418 19.0635 87.0486 19.4002C87.3555 19.7368 87.7667 19.9052 88.2823 19.9052C88.6104 19.9052 88.9173 19.8306 89.2028 19.6814C89.4883 19.528 89.7184 19.3022 89.8931 19.0039C90.0721 18.7056 90.1594 18.337 90.1552 17.8981Z" fill="#101828"/>
<path d="M95.0563 22.0785V12.2603H97.7793V22.0785H95.0563ZM96.4242 10.9947C96.0194 10.9947 95.6721 10.8604 95.3823 10.592C95.0968 10.3192 94.954 9.99324 94.954 9.61397C94.954 9.23897 95.0968 8.91724 95.3823 8.64878C95.6721 8.37605 96.0194 8.23969 96.4242 8.23969C96.829 8.23969 97.1742 8.37605 97.4597 8.64878C97.7495 8.91724 97.8944 9.23897 97.8944 9.61397C97.8944 9.99324 97.7495 10.3192 97.4597 10.592C97.1742 10.8604 96.829 10.9947 96.4242 10.9947Z" fill="#101828"/>
<path d="M102.684 8.98755V22.0785H99.9606V8.98755H102.684Z" fill="#101828"/>
<path d="M108.483 22.2383C107.737 22.2383 107.062 22.0465 106.456 21.663C105.856 21.2752 105.378 20.7063 105.025 19.9563C104.675 19.202 104.501 18.2773 104.501 17.1822C104.501 16.0572 104.682 15.1218 105.044 14.376C105.406 13.626 105.888 13.0657 106.488 12.6949C107.094 12.3199 107.756 12.1324 108.476 12.1324C109.026 12.1324 109.484 12.2262 109.851 12.4137C110.221 12.5969 110.52 12.827 110.746 13.104C110.976 13.3768 111.15 13.6452 111.27 13.9094H111.353V8.98755H114.069V22.0785H111.385V20.506H111.27C111.142 20.7787 110.961 21.0493 110.726 21.3178C110.496 21.582 110.196 21.8015 109.825 21.9762C109.459 22.1509 109.011 22.2383 108.483 22.2383ZM109.346 20.0714C109.785 20.0714 110.155 19.952 110.458 19.7134C110.765 19.4705 110.999 19.1317 111.161 18.6971C111.327 18.2624 111.41 17.7532 111.41 17.1694C111.41 16.5856 111.329 16.0785 111.167 15.6481C111.006 15.2177 110.771 14.8853 110.464 14.6509C110.157 14.4165 109.785 14.2993 109.346 14.2993C108.898 14.2993 108.521 14.4208 108.214 14.6637C107.907 14.9066 107.675 15.2432 107.518 15.6736C107.36 16.104 107.281 16.6026 107.281 17.1694C107.281 17.7404 107.36 18.2454 107.518 18.6843C107.68 19.1189 107.912 19.4599 108.214 19.707C108.521 19.9499 108.898 20.0714 109.346 20.0714Z" fill="#101828"/>
<defs>
<linearGradient id="paint0_linear_2390_30988" x1="0.000238993" y1="1.15506e-05" x2="29.3556" y2="-2.26466" gradientUnits="userSpaceOnUse">
<stop stop-color="#1570EF"/>
<stop offset="1" stop-color="#53B1FD"/>
</linearGradient>
</defs>
</svg>
