<svg width="56" height="56" viewBox="0 0 56 56" fill="none" xmlns="http://www.w3.org/2000/svg">
<path d="M0 25.6C0 16.6392 0 12.1587 1.7439 8.73615C3.27787 5.72556 5.72556 3.27787 8.73615 1.7439C12.1587 0 16.6392 0 25.6 0H30.4C39.3608 0 43.8413 0 47.2638 1.7439C50.2744 3.27787 52.7221 5.72556 54.2561 8.73615C56 12.1587 56 16.6392 56 25.6V30.4C56 39.3608 56 43.8413 54.2561 47.2638C52.7221 50.2744 50.2744 52.7221 47.2638 54.2561C43.8413 56 39.3608 56 30.4 56H25.6C16.6392 56 12.1587 56 8.73615 54.2561C5.72556 52.7221 3.27787 50.2744 1.7439 47.2638C0 43.8413 0 39.3608 0 30.4V25.6Z" fill="url(#paint0_linear_2694_399)"/>
<path fill-rule="evenodd" clip-rule="evenodd" d="M33.506 14.3367C27.5642 14.3367 22.7475 19.1535 22.7475 25.0952C22.7475 31.037 27.5642 35.8538 33.506 35.8538C34.6943 35.8538 35.6577 36.8171 35.6577 38.0055C35.6577 39.1938 34.6943 40.1572 33.506 40.1572C25.1875 40.1572 18.4441 33.4137 18.4441 25.0952C18.4441 16.7768 25.1875 10.0333 33.506 10.0333C34.6943 10.0333 35.6577 10.9967 35.6577 12.185C35.6577 13.3734 34.6943 14.3367 33.506 14.3367ZM14.7863 22.9434C15.9747 22.9434 16.938 23.9068 16.938 25.0951C16.938 34.2454 24.3558 41.6632 33.5062 41.6632C34.6945 41.6632 35.6579 42.6266 35.6579 43.8149C35.6579 45.0033 34.6945 45.9666 33.5062 45.9666C21.9791 45.9666 12.6346 36.6221 12.6346 25.0951C12.6346 23.9068 13.598 22.9434 14.7863 22.9434ZM33.5037 30.044C36.1775 30.044 38.345 27.8765 38.345 25.2027C38.345 22.537 36.1905 20.3744 33.5279 20.3614C33.9168 20.8278 34.1508 21.428 34.1508 22.0828C34.1508 23.5682 32.9466 24.7724 31.4612 24.7724C30.4089 24.7724 29.4978 24.1681 29.0558 23.2877C28.8026 23.875 28.6623 24.5225 28.6623 25.2027C28.6623 27.8765 30.8299 30.044 33.5037 30.044ZM33.5037 34.3474C38.5542 34.3474 42.6484 30.2532 42.6484 25.2027C42.6484 20.1522 38.5542 16.0579 33.5037 16.0579C28.4532 16.0579 24.3589 20.1522 24.3589 25.2027C24.3589 30.2532 28.4532 34.3474 33.5037 34.3474Z" fill="white"/>
<defs>
<linearGradient id="paint0_linear_2694_399" x1="-17.6837" y1="-12.3099" x2="68.6168" y2="-20.2804" gradientUnits="userSpaceOnUse">
<stop stop-color="#1570EF"/>
<stop offset="1" stop-color="#53B1FD"/>
</linearGradient>
</defs>
</svg>
